<?xml version="1.0" encoding="UTF-8"?>
<svg id="_레이어_1" data-name="레이어 1" xmlns="http://www.w3.org/2000/svg" viewBox="0 0 1500 622.59">
  <defs>
    <style>
      .cls-2 {
        fill: #f5f7fb;
      }

      .cls-3 {
        fill: #3046dd;
      }
    </style>
  </defs>
  <g>
    <polygon class="cls-3" points="1180.18 29.28 1214.07 153.74 1260.7 185.03 1292.2 195.46 1300.25 129.91 1287.79 97.89 1180.18 29.28"/>
    <polygon class="cls-3" points="1310.99 149.25 1307.06 197.28 1404.2 164.3 1465.59 56.79 1353.72 92.22 1310.99 149.25"/>
    <polygon class="cls-3" points="1340.87 196.85 1310.84 211.84 1317.11 235.56 1357.32 260.49 1370.92 244.46 1371.44 206.83 1340.87 196.85"/>
  </g>
  <g>
    <polygon class="cls-3" points="399.42 528.37 415.38 528.37 415.38 553.47 466.84 553.47 466.84 528.37 483.89 528.37 483.89 593.3 466.84 593.3 466.84 566.8 415.38 566.8 415.38 593.3 399.42 593.3 399.42 528.37"/>
    <polygon class="cls-3" points="892.05 528.37 892.05 541.16 845.21 541.16 845.21 557.32 892.05 557.32 892.05 541.64 905.94 541.71 905.94 557.32 890.26 570.22 911.9 593.3 891.41 593.3 872.76 571.09 845.21 571.18 845.21 593.3 829.19 593.3 829.19 528.37 892.05 528.37"/>
    <polygon class="cls-3" points="1028.79 528.37 1028.79 541.85 1060.33 541.85 1060.33 593.3 1076.92 593.3 1076.92 541.83 1109.26 541.93 1109.26 528.37 1028.79 528.37"/>
    <polygon class="cls-3" points="219.53 593.3 220.3 593.3 282.53 593.3 282.53 579.62 225.65 579.62 220.3 574.86 220.3 546.78 225.65 542.05 282.53 542.05 282.53 528.37 220.3 528.37 204.36 542.05 204.36 579.62 219.53 593.3"/>
    <polygon class="cls-3" points="600.78 593.3 646.25 528.37 666.83 528.37 712.3 593.3 691.72 593.3 656.54 541.32 621.36 593.3 600.78 593.3"/>
  </g>
  <g>
    <polygon class="cls-2" points="55.55 207.77 125.54 207.77 347.64 387.58 348.26 207.77 416.2 207.77 416.2 461.66 346.22 461.66 125.54 281.85 125.54 461.66 55.55 461.66 55.55 207.77"/>
    <polygon class="cls-2" points="438.82 461.66 616.58 207.77 697.04 207.77 874.81 461.66 794.35 461.66 656.81 258.4 519.27 461.66 438.82 461.66"/>
    <polygon class="cls-2" points="766.48 207.77 944.24 461.66 1024.7 461.66 1202.47 207.77 1122.01 207.77 984.47 411.02 846.93 207.77 766.48 207.77"/>
    <polyline class="cls-2" points="1225.68 207.77 1290.35 207.77 1290.35 461.66 1225.68 461.66"/>
  </g>
</svg>
