<?xml version="1.0" encoding="UTF-8"?>
<svg id="_레이어_1" data-name="레이어 1" xmlns="http://www.w3.org/2000/svg" viewBox="0 0 1477.07 613.07">
  <defs>
    <style>
      .cls-1 {
        fill: #030617;
      }

      .cls-2 {
        fill: #f8f9f7;
      }

      .cls-3 {
        fill: #2d4198;
      }
    </style>
  </defs>

  <g>
    <polygon class="cls-3" points="1182.03 36.26 1215.39 158.81 1261.32 189.63 1292.33 199.89 1300.26 135.34 1287.99 103.82 1182.03 36.26"/>
    <polygon class="cls-3" points="1310.83 154.39 1306.96 201.69 1402.62 169.21 1463.07 63.34 1352.91 98.23 1310.83 154.39"/>
    <polygon class="cls-3" points="1340.26 201.26 1310.69 216.02 1316.86 239.38 1356.45 263.93 1369.85 248.14 1370.36 211.09 1340.26 201.26"/>
  </g>
  <g>
    <polygon class="cls-3" points="485.19 521.12 497.48 521.12 497.48 540.45 537.09 540.45 537.09 521.12 550.22 521.12 550.22 571.12 537.09 571.12 537.09 550.72 497.48 550.72 497.48 571.12 485.19 571.12 485.19 521.12"/>
    <polygon class="cls-3" points="864.49 521.12 864.49 530.97 828.42 530.97 828.42 543.41 864.49 543.41 864.49 531.34 875.18 531.39 875.18 543.41 863.11 553.35 879.77 571.12 864 571.12 849.63 554.02 828.42 554.09 828.42 571.12 816.09 571.12 816.09 521.12 864.49 521.12"/>
    <polygon class="cls-3" points="969.77 521.12 969.77 531.5 994.05 531.5 994.05 571.12 1006.83 571.12 1006.83 531.48 1031.73 531.56 1031.73 521.12 969.77 521.12"/>
    <polygon class="cls-3" points="346.68 571.12 347.27 571.12 395.19 571.12 395.19 560.59 351.39 560.59 347.27 556.92 347.27 535.3 351.39 531.65 395.19 531.65 395.19 521.12 347.27 521.12 335 531.65 335 560.59 346.68 571.12"/>
    <polygon class="cls-3" points="640.22 571.12 675.23 521.12 691.08 521.12 726.09 571.12 710.24 571.12 683.15 531.09 656.07 571.12 640.22 571.12"/>
  </g>
  <g>
    <polygon class="cls-1" points="1228.46 212.02 1292.14 212.02 1292.14 460.57 1228.46 462.02 1228.46 212.02"/>
    <polygon class="cls-1" points="74.59 212.02 143.51 212.02 362.21 389.08 362.82 212.02 429.72 212.02 429.72 462.02 360.81 462.02 143.51 284.96 143.51 462.02 74.59 462.02 74.59 212.02"/>
    <polygon class="cls-1" points="451.99 462.02 627.04 212.02 706.27 212.02 881.32 462.02 802.1 462.02 666.66 261.88 531.22 462.02 451.99 462.02"/>
    <polygon class="cls-1" points="774.65 212.02 949.7 462.02 1028.92 462.02 1203.97 212.02 1124.75 212.02 989.31 412.16 853.87 212.02 774.65 212.02"/>
  </g>
</svg>