<?xml version="1.0" encoding="UTF-8"?>
<svg id="_레이어_1" data-name="레이어 1" xmlns="http://www.w3.org/2000/svg" viewBox="0 0 1477.07 613.07">
  <defs>
    <style>
      .cls-1 {
        fill: #030617;
      }

      .cls-2 {
        fill: #f5f7fb;
      }

      .cls-3 {
        fill: #2d4198;
      }
    </style>
  </defs>
  <rect class="cls-1" width="1477.07" height="613.07"/>
  <g>
    <polygon class="cls-3" points="1162.14 28.83 1195.51 151.39 1241.43 182.21 1272.45 192.47 1280.37 127.92 1268.1 96.39 1162.14 28.83"/>
    <polygon class="cls-3" points="1290.94 146.97 1287.07 194.27 1382.73 161.79 1443.18 55.92 1333.02 90.81 1290.94 146.97"/>
    <polygon class="cls-3" points="1320.37 193.84 1290.8 208.6 1296.97 231.95 1336.56 256.51 1349.96 240.72 1350.48 203.66 1320.37 193.84"/>
  </g>
  <g>
    <polygon class="cls-3" points="437.96 510.99 453.68 510.99 453.68 535.71 504.35 535.71 504.35 510.99 521.14 510.99 521.14 574.93 504.35 574.93 504.35 548.84 453.68 548.84 453.68 574.93 437.96 574.93 437.96 510.99"/>
    <polygon class="cls-3" points="923.06 510.99 923.06 523.58 876.94 523.58 876.94 539.49 923.06 539.49 923.06 524.06 936.74 524.12 936.74 539.49 921.3 552.2 942.61 574.93 922.44 574.93 904.06 553.06 876.94 553.15 876.94 574.93 861.16 574.93 861.16 510.99 923.06 510.99"/>
    <polygon class="cls-3" points="1057.71 510.99 1057.71 524.27 1088.77 524.27 1088.77 574.93 1105.11 574.93 1105.11 524.24 1136.96 524.34 1136.96 510.99 1057.71 510.99"/>
    <polygon class="cls-3" points="260.83 574.93 261.58 574.93 322.86 574.93 322.86 561.46 266.85 561.46 261.58 556.77 261.58 529.12 266.85 524.46 322.86 524.46 322.86 510.99 261.58 510.99 245.89 524.46 245.89 561.46 260.83 574.93"/>
    <polygon class="cls-3" points="636.24 574.93 681.02 510.99 701.28 510.99 746.06 574.93 725.79 574.93 691.15 523.74 656.51 574.93 636.24 574.93"/>
  </g>
  <g>
    <polygon class="cls-2" points="486.95 457.69 656.96 207.69 725.88 207.69 895.89 457.69 827.13 457.69 691.69 257.55 556.25 457.69 486.95 457.69"/>
    <polygon class="cls-2" points="112.64 207.69 181.55 207.69 400.26 384.75 400.87 207.69 467.77 207.69 467.77 457.69 398.86 457.69 181.55 280.64 181.55 457.69 112.64 457.69 112.64 207.69"/>
    <polygon class="cls-2" points="775.4 207.69 945.41 457.69 1014.32 457.69 1184.34 207.69 1115.58 207.69 980.14 407.84 844.7 207.69 775.4 207.69"/>
    <rect class="cls-2" x="1204.74" y="207.69" width="68.91" height="250"/>
  </g>
</svg>